<svg width="192" height="28" viewBox="0 0 192 28" fill="none" xmlns="http://www.w3.org/2000/svg">
<path fill-rule="evenodd" clip-rule="evenodd" d="M137.4 6.20079C137.842 5.86942 138.469 5.95896 138.8 6.40079L149 20.0007V7.00079C149 6.44851 149.448 6.00079 150 6.00079C150.553 6.00079 151 6.44851 151 7.00079V22.9891C151 23.0113 151 23.0334 150.999 23.0555C150.984 23.3232 150.862 23.5831 150.643 23.7666C150.548 23.8467 150.437 23.9094 150.317 23.9496C150.196 23.9899 150.07 24.0061 149.945 23.9992C149.678 23.9843 149.418 23.8626 149.234 23.6437C149.22 23.6267 149.206 23.6092 149.193 23.5913L137.2 7.60079C136.869 7.15897 136.958 6.53217 137.4 6.20079ZM178.819 7.4273C178.503 6.97486 177.879 6.86485 177.427 7.18158C176.974 7.49831 176.864 8.12184 177.181 8.57428L180.681 13.5735C180.998 14.026 181.621 14.136 182.073 13.8193C182.526 13.5025 182.636 12.879 182.319 12.4266L178.819 7.4273ZM191.222 7.19833C191.666 7.52788 191.758 8.15431 191.428 8.59749L185 17.2419V23.5401C185 24.0923 184.553 24.5401 184 24.5401C183.448 24.5401 183 24.0923 183 23.5401V17.0007C183 16.9857 183.001 16.9707 183.001 16.9559C182.991 16.7336 183.055 16.5066 183.198 16.3141L189.823 7.40409C190.153 6.9609 190.779 6.86878 191.222 7.19833ZM138 13.0002C138.553 13.0002 139 13.4479 139 14.0002V23.0007C139 23.553 138.553 24.0007 138 24.0007C137.448 24.0007 137 23.553 137 23.0007V14.0002C137 13.4479 137.448 13.0002 138 13.0002ZM120 6.00079C119.448 6.00079 119 6.4485 119 7.00079V11.0002C119 11.5525 119.448 12.0002 120 12.0002C120.553 12.0002 121 11.5525 121 11.0002V8.00079H130C130.553 8.00079 131 7.55307 131 7.00079C131 6.4485 130.553 6.00079 130 6.00079H120ZM121 16.0008L130 16.0007C130.553 16.0007 131 15.5529 131 15.0007C131 14.4484 130.553 14.0007 130 14.0007L120 14.0008H120C119.448 14.0008 119 14.4485 119 15.0008V15.0008V19.0002C119 19.5525 119.448 20.0002 120 20.0002C120.553 20.0002 121 19.5525 121 19.0002V16.0008ZM120 24.0008L130 24.0007C130.553 24.0007 131 23.5529 131 23.0007C131 22.4484 130.553 22.0007 130 22.0007L120 22.0008C119.448 22.0008 119 22.4485 119 23.0008C119 23.5531 119.448 24.0008 120 24.0008ZM159.1 8.64267C160.434 7.16503 162.403 6.00079 164.854 6.00079C166.875 6.00079 168.337 6.55628 169.311 7.14478C169.795 7.4369 170.152 7.73329 170.395 7.96532C170.516 8.08136 170.609 8.18155 170.675 8.25748C170.708 8.29546 170.735 8.32743 170.755 8.35235C170.765 8.36481 170.773 8.37552 170.78 8.38434L170.789 8.39615L170.793 8.40096L170.794 8.4031L170.795 8.40409C170.795 8.40457 170.796 8.40504 169.992 9.00067L170.796 8.40504C171.125 8.84867 171.032 9.47497 170.588 9.80393C170.147 10.1307 169.526 10.0411 169.196 9.60506L169.195 9.60407C169.191 9.59969 169.182 9.58869 169.168 9.57199C169.139 9.53855 169.087 9.48251 169.013 9.41106C168.863 9.2681 168.621 9.06453 168.277 8.85668C167.596 8.44524 166.489 8.00079 164.854 8.00079C163.079 8.00079 161.62 8.83618 160.584 9.98318C159.526 11.1549 159 12.5503 159 13.5001C159 14.0523 158.552 14.5001 158 14.5001C157.448 14.5001 157 14.0523 157 13.5001C157 11.9498 157.788 10.0956 159.1 8.64267ZM164.854 25.0008C162.403 25.0008 160.434 23.8361 159.1 22.3581C157.788 20.9048 157 19.0503 157 17.5001C157 16.9478 157.448 16.5001 158 16.5001C158.552 16.5001 159 16.9478 159 17.5001C159 18.4498 159.526 19.8457 160.584 21.0178C161.62 22.1652 163.079 23.0008 164.854 23.0008C166.489 23.0008 167.596 22.5563 168.277 22.1448C168.621 21.9369 168.863 21.7333 169.013 21.5904C169.087 21.5189 169.139 21.4628 169.168 21.4294C169.182 21.4127 169.191 21.4017 169.195 21.3973L169.196 21.3963C169.526 20.9602 170.147 20.8706 170.588 21.1974C171.032 21.5263 171.125 22.1526 170.796 22.5963L169.992 22.0007C170.796 22.5963 170.795 22.5967 170.795 22.5972L170.794 22.5982L170.793 22.6003L170.789 22.6051L170.78 22.6169C170.776 22.6219 170.772 22.6273 170.767 22.6334C170.763 22.6382 170.759 22.6434 170.755 22.6489C170.735 22.6739 170.708 22.7058 170.675 22.7438C170.609 22.8198 170.516 22.92 170.395 23.036C170.152 23.2681 169.795 23.5645 169.311 23.8567C168.337 24.4452 166.875 25.0008 164.854 25.0008Z" fill="white"/>
<path fill-rule="evenodd" clip-rule="evenodd" d="M34.9258 6.62176C34.7167 6.1106 34.1328 5.86573 33.6216 6.07483C33.1105 6.28394 32.8656 6.86784 33.0747 7.37901L37.5744 18.3788C37.7836 18.8899 38.3674 19.1348 38.8786 18.9257C39.3898 18.7166 39.6347 18.1327 39.4255 17.6215L34.9258 6.62176ZM48.9164 7.40148C49.1378 6.8955 48.9071 6.30587 48.4011 6.0845C47.8951 5.86314 47.3055 6.09386 47.0841 6.59984L40.0841 22.5998C39.8627 23.1058 40.0934 23.6955 40.5994 23.9168C41.1054 24.1382 41.695 23.9075 41.9164 23.4015L48.9164 7.40148ZM56.0003 6.00068C56.5525 6.00068 57.0003 6.4484 57.0003 7.00068V23.0007C57.0003 23.553 56.5525 24.0007 56.0003 24.0007C55.448 24.0007 55.0003 23.553 55.0003 23.0007V7.00068C55.0003 6.4484 55.448 6.00068 56.0003 6.00068ZM72.0003 11.0007C72.0003 10.4484 71.5525 10.0007 71.0003 10.0007C70.448 10.0007 70.0003 10.4484 70.0003 11.0007V23.0007C70.0003 23.553 70.448 24.0007 71.0003 24.0007C71.5525 24.0007 72.0003 23.553 72.0003 23.0007V11.0007ZM63.0003 7.00068C63.0003 6.4484 63.448 6.00068 64.0003 6.00068H78.0002C78.5525 6.00068 79.0002 6.4484 79.0002 7.00068C79.0002 7.55297 78.5525 8.00068 78.0002 8.00068H64.0003C63.448 8.00068 63.0003 7.55297 63.0003 7.00068ZM103 7.00068C103 6.4484 102.553 6.00068 102 6.00068C101.448 6.00068 101 6.4484 101 7.00068V19.0007C101 19.553 101.448 20.0007 102 20.0007C102.553 20.0007 103 19.553 103 19.0007V7.00068ZM101 23.0007C101 22.4484 101.448 22.0007 102 22.0007H112C112.553 22.0007 113 22.4484 113 23.0007C113 23.553 112.553 24.0007 112 24.0007H102C101.448 24.0007 101 23.553 101 23.0007ZM90.4255 11.6215C90.2164 11.1103 89.6325 10.8655 89.1214 11.0746C88.6102 11.2837 88.3653 11.8676 88.5745 12.3788L90.8743 18.0007H87C86.4477 18.0007 86 18.4484 86 19.0007C86 19.553 86.4477 20.0007 87 20.0007H91.6925L93.0747 23.3793C93.2838 23.8905 93.8677 24.1353 94.3789 23.9262C94.89 23.7171 95.1349 23.1332 94.9258 22.622L90.4255 11.6215ZM87.3514 6.06435C87.8685 6.25827 88.1305 6.83469 87.9366 7.35181L81.9366 23.3518C81.7427 23.8689 81.1663 24.1309 80.6491 23.937C80.132 23.7431 79.87 23.1667 80.0639 22.6496L86.0639 6.64956C86.2579 6.13244 86.8343 5.87043 87.3514 6.06435Z" fill="white"/>
<path fill-rule="evenodd" clip-rule="evenodd" d="M5.24865 6.26691C5.50491 5.77768 6.10926 5.58882 6.59849 5.84509L18.5412 12.1008C19.3441 12.5213 19.6624 13.5073 19.2571 14.3179L15.3927 22.0467C14.7705 23.2912 12.9863 23.267 12.3979 22.0062L8.80522 14.3076C8.57167 13.8072 8.78805 13.2121 9.28852 12.9786C9.78899 12.745 10.384 12.9614 10.6176 13.4619L13.9155 20.5289L17.3204 13.7191L5.67047 7.61675C5.18124 7.36048 4.99239 6.75614 5.24865 6.26691Z" fill="white"/>
<path fill-rule="evenodd" clip-rule="evenodd" d="M20.6577 1.16049C25.202 -1.15038 30.0615 3.72871 27.7006 8.26023C24.1516 15.0722 20.1572 22.7412 18.9451 25.0762C18.6906 25.5664 18.087 25.7575 17.5968 25.503C17.1067 25.2486 16.9156 24.6449 17.17 24.1547C18.383 21.8181 22.3784 14.1472 25.9269 7.33614C27.3834 4.54062 24.3844 1.50913 21.5643 2.94322C19.4603 4.01319 17.4944 5.00907 16.0906 5.71239L20.0594 7.787L20.8303 6.46544C21.1086 5.98839 21.7209 5.82726 22.198 6.10554C22.675 6.38382 22.8362 6.99613 22.5579 7.47319L21.625 9.07244C21.1772 9.83998 20.2053 10.12 19.4178 9.70839L14.5961 7.18795C13.395 6.56008 13.3962 4.82132 14.6226 4.21021C16.0249 3.51142 18.2472 2.38629 20.6577 1.16049Z" fill="white"/>
<path fill-rule="evenodd" clip-rule="evenodd" d="M2.37209 7.23799C1.04653 4.41012 4.10089 1.52716 6.85042 3.01615C8.24292 3.77025 9.34828 4.36856 9.83251 4.63C10.3185 4.89239 10.9251 4.71113 11.1875 4.22515C11.4499 3.73918 11.2687 3.13251 10.7827 2.87013C10.2998 2.60941 9.1957 2.01178 7.80282 1.25748C3.35986 -1.14858 -1.5849 3.50856 0.561175 8.08685L8.50791 25.0399C8.52493 25.0762 8.54412 25.1114 8.56537 25.1454L8.74517 25.4331C9.74321 27.03 11.4935 28.0001 13.3766 28.0001H13.8845C14.4368 28.0001 14.8845 27.5523 14.8845 27.0001C14.8845 26.4478 14.4368 26.0001 13.8845 26.0001H13.3766C12.183 26.0001 11.0737 25.3852 10.4412 24.3731L10.2933 24.1365L2.37209 7.23799Z" fill="white"/>
</svg>
