<svg width="29" height="28" viewBox="0 0 29 28" fill="none" xmlns="http://www.w3.org/2000/svg">
<path fill-rule="evenodd" clip-rule="evenodd" d="M6.12938 5.64429C6.38316 5.15979 6.98165 4.97276 7.46615 5.22655L19.2932 11.4217C20.0883 11.8382 20.4036 12.8146 20.0022 13.6174L16.1752 21.2713C15.559 22.5037 13.7921 22.4798 13.2094 21.2312L9.65152 13.6072C9.42022 13.1116 9.63451 12.5223 10.1301 12.291C10.6258 12.0597 11.215 12.274 11.4463 12.7696L14.7124 19.7682L18.0843 13.0243L6.54712 6.98106C6.06262 6.72727 5.8756 6.12878 6.12938 5.64429Z" fill="url(#paint0_linear)"/>
<path fill-rule="evenodd" clip-rule="evenodd" d="M21.3894 0.587363C25.8897 -1.70113 30.7022 3.13072 28.3641 7.61837C24.8495 14.3644 20.8937 21.9591 19.6934 24.2715C19.4414 24.757 18.8436 24.9462 18.3582 24.6942C17.8727 24.4422 17.6835 23.8444 17.9355 23.359C19.1367 21.0449 23.0934 13.4484 26.6076 6.70322C28.0499 3.93477 25.08 0.932634 22.2872 2.35283C20.2036 3.41244 18.2568 4.39868 16.8665 5.0952L20.7969 7.14972L21.5603 5.84096C21.8359 5.36852 22.4423 5.20895 22.9148 5.48453C23.3872 5.76012 23.5468 6.36651 23.2712 6.83894L22.3473 8.42272C21.9039 9.18282 20.9414 9.46015 20.1615 9.0525L15.3865 6.55647C14.197 5.93468 14.1982 4.21275 15.4127 3.60755C16.8015 2.91554 19.0023 1.8013 21.3894 0.587363Z" fill="url(#paint1_linear)"/>
<path fill-rule="evenodd" clip-rule="evenodd" d="M3.28059 6.60599C1.96786 3.8055 4.99265 0.950452 7.71556 2.42503C9.09458 3.17183 10.1892 3.76434 10.6688 4.02325C11.15 4.2831 11.7508 4.1036 12.0107 3.62233C12.2705 3.14105 12.091 2.54026 11.6098 2.28042C11.1316 2.02223 10.0381 1.43039 8.65874 0.683384C4.25879 -1.69938 -0.638094 2.91267 1.4872 7.44664L9.357 24.2355C9.37385 24.2715 9.39286 24.3064 9.4139 24.3401L9.59197 24.625C10.5803 26.2064 12.3137 27.1671 14.1785 27.1671H14.6816C15.2285 27.1671 15.6719 26.7237 15.6719 26.1767C15.6719 25.6298 15.2285 25.1864 14.6816 25.1864H14.1785C12.9966 25.1864 11.898 24.5775 11.2715 23.5752L11.1251 23.3409L3.28059 6.60599Z" fill="url(#paint2_linear)"/>
<defs>
<linearGradient id="paint0_linear" x1="5.74715" y1="6.10378" x2="19.4396" y2="13.1623" gradientUnits="userSpaceOnUse">
<stop offset="0.00545439" stop-color="#FF6B81"/>
<stop offset="1" stop-color="#FF7F50"/>
</linearGradient>
<linearGradient id="paint1_linear" x1="2.78669" y1="14.0247" x2="29.699" y2="14.7837" gradientUnits="userSpaceOnUse">
<stop stop-color="#FF7F50"/>
<stop offset="1" stop-color="#FF6B81"/>
</linearGradient>
<linearGradient id="paint2_linear" x1="20.2214" y1="14.8553" x2="-3.10225" y2="11.7831" gradientUnits="userSpaceOnUse">
<stop stop-color="#FF6B81"/>
<stop offset="1" stop-color="#FF7F50"/>
</linearGradient>
</defs>
</svg>
